<svg xmlns="http://www.w3.org/2000/svg" height="1000" width="1000">

    <defs>
        <linearGradient id="grad1" x1="50%" y1="0%" x2="50%" y2="100%">
            <stop offset="0%" style="stop-color: #96D86F; stop-opacity:1" />
            <stop offset="100%" style="stop-color: #97D1D1; stop-opacity:1" />
        </linearGradient>
    </defs>

    <path transform="scale(20)" fill="url(#grad1)" d="M11 39v1.5q0 .65-.425 1.075Q10.15 42 9.5 42q-.65 0-1.075-.425Q8 41.15 8 40.5v-33q0-.65.425-1.075Q8.85 6 9.5 6q.65 0 1.075.425Q11 6.85 11 7.5V9h6V7.5q0-.65.425-1.075Q17.85 6 18.5 6h11q.65 0 1.075.425Q31 6.85 31 7.5V9h6V7.5q0-.65.425-1.075Q37.85 6 38.5 6q.65 0 1.075.425Q40 6.85 40 7.5v33q0 .65-.425 1.075Q39.15 42 38.5 42q-.65 0-1.075-.425Q37 41.15 37 40.5V39h-6v1.5q0 .65-.425 1.075Q30.15 42 29.5 42h-11q-.65 0-1.075-.425Q17 41.15 17 40.5V39Zm0-3h6v-6h-6Zm0-9h6v-6h-6Zm0-9h6v-6h-6Zm20 18h6v-6h-6Zm0-9h6v-6h-6Zm0-9h6v-6h-6Z"/>
</svg>